<?xml version="1.0" encoding="utf-8"?>
<!-- Generator: Adobe Illustrator 18.0.0, SVG Export Plug-In . SVG Version: 6.00 Build 0)  -->
<!DOCTYPE svg PUBLIC "-//W3C//DTD SVG 1.1//EN" "http://www.w3.org/Graphics/SVG/1.1/DTD/svg11.dtd">
<svg version="1.1" id="Layer_1" xmlns="http://www.w3.org/2000/svg" xmlns:xlink="http://www.w3.org/1999/xlink" x="0px" y="0px"
	 viewBox="0 0 350.5 351.4" enable-background="new 0 0 350.5 351.4" xml:space="preserve">
<path fill="#BFA624" d="M317,189.5c1.8-9.6,2.8-19.5,2.8-29.6C319.8,71.6,248.2,0,159.9,0C71.6,0,0,71.6,0,159.9
	c0,88.3,71.6,159.9,159.9,159.9c10.1,0,20-1,29.6-2.8L317,189.5z"/>
<defs>
	<filter id="Adobe_OpacityMaskFilter" filterUnits="userSpaceOnUse" x="0" y="0" width="319.8" height="319.8">
		<feFlood  style="flood-color:white;flood-opacity:1" result="back"/>
		<feBlend  in="SourceGraphic" in2="back" mode="normal"/>
	</filter>
</defs>
<mask maskUnits="userSpaceOnUse" x="0" y="0" width="319.8" height="319.8" id="SVGID_1_">
	<g filter="url(#Adobe_OpacityMaskFilter)">
		
			<linearGradient id="SVGID_2_" gradientUnits="userSpaceOnUse" x1="-120.1779" y1="598.7934" x2="-118.2334" y2="598.7934" gradientTransform="matrix(131.3785 -187.6279 -187.6279 -131.3785 128189.4297 56474.2109)">
			<stop  offset="0" style="stop-color:#FFFFFF"/>
			<stop  offset="5.623438e-02" style="stop-color:#EEEEEE"/>
			<stop  offset="0.1681" style="stop-color:#C1C1C1"/>
			<stop  offset="0.3251" style="stop-color:#787878"/>
			<stop  offset="0.5195" style="stop-color:#151515"/>
			<stop  offset="0.56" style="stop-color:#000000"/>
			<stop  offset="0.9378" style="stop-color:#000000"/>
			<stop  offset="1" style="stop-color:#000000"/>
		</linearGradient>
		<polygon fill="url(#SVGID_2_)" points="-165.2,235.9 115.4,-164.8 515.8,115.7 235.3,516.3 		"/>
	</g>
</mask>
<g mask="url(#SVGID_1_)">
	<g>
		<path fill="#A99000" d="M317,189.5c1.8-9.6,2.8-19.5,2.8-29.6C319.8,71.6,248.2,0,159.9,0C71.6,0,0,71.6,0,159.9
			c0,88.3,71.6,159.9,159.9,159.9c10.1,0,20-1,29.6-2.8L317,189.5z"/>
	</g>
</g>
<path fill="#FFFFFF" d="M144.1,145.1l-6.9-1.7c0,0-0.1,0-0.1,0c-0.8-0.3-1.3-0.9-1.3-1.8c0,0,0,0,0-0.1v-33.1
	c0-27.2-22.1-33-36.5-33c-6.7,0-15.1,1.7-22.2,5.9l-1.8-4.3l-26.7,2.9v10.5l11.8,2c0.6,0.3,1.1,0.8,1.1,1.5c0,4.9,0,20.1,0,20.1l0,0
	v27.7c0,0,0,0,0,0c0,1-0.5,1.6-1.3,1.8c-0.1,0-0.1,0-0.2,0.1l-6.5,1.7v12.4h1.4h6.6h22.2h7.5v-12.4l-6.3-1.8
	c-0.8-0.3-1.2-0.9-1.2-1.8c0,0,0,0,0,0v-33.6c0-14.1,12.7-14.1,15.4-14.1c0,0,0,0,0,0c0,0,0,0,0.1,0c2.3,0,6.5,0.4,9.8,2.8
	c2.6,1.9,4.7,5.1,4.7,10.3v20.6h0v13.8c0,0,0,0.1,0,0.2c0,1-0.5,1.6-1.3,1.8c0,0,0,0,0,0l-6.2,1.7v12.4h7.6h22h6.9h1.4V145.1z
	 M164.4,107.8c0-14.1,12.6-14.1,15.3-14.1c4.1,0,14.4,1.3,14.4,13.1v1.1L164.4,107.8z M164.4,124.8h51.8v-16.4
	c0-27.2-22.1-33-36.5-33c-14.9,0-37.7,7.4-37.7,31.3v21c0,24,23.2,31.5,38.2,31.5c18.1,0,28-5.7,35.3-10V136h-20.2
	c0,0-5.8,5.5-15.1,5.5c-2.7,0-15.8-1-15.8-15.1V124.8z M247,135.7V93.6h20.8V77H247V58.5L224.4,61v16h-7.6v16.6h7.6V136
	c0,22,20.1,22,27,22c9.2,0,19.8-5,19.8-5v-15.1h-11.9c0,0-2,2.5-7.2,2.5C248.7,140.4,247,139,247,135.7"/>
<path fill="#FFFFFF" d="M213.3,233.7v-5.8h-21.1l-2.4,23.9l1.2,0.5c0.8-2.1,2.1-3.7,4-4.8c1.8-1.1,4.4-1.6,7.6-1.6
	c3.3,0,5.8,1.1,7.6,3.2c1.8,2.1,2.7,5,2.7,8.7c0,4.3-0.9,7.6-2.7,9.7c-1.8,2.2-4.7,3.2-8.6,3.2c-3.3,0-5.9-0.9-7.9-2.7
	c-1.9-1.8-2.9-4.4-2.9-7.9h-1.4l-0.1,0.2c-0.1,4,1,6.9,3.4,9c2.4,2,5.3,3,8.9,3c4.4,0,7.7-1.3,9.8-4c2.1-2.6,3.2-6.2,3.2-10.7
	c0-4.2-1.1-7.5-3.4-10c-2.3-2.5-5.2-3.7-8.7-3.6c-2.9,0.1-5.1,0.4-6.6,1.1c-1.5,0.6-2.9,1.6-4.1,2.9l1.8-18.6h18v4.2H213.3z
	 M167.5,271.8h19.3v-1.6H178v-42.5l-11.8,2.5v1.5l10.2-2.3v40.7h-8.8V271.8z M160.8,254.4c0,5.1-1,9.1-3,12c-2,2.9-4.9,4.4-8.7,4.4
	c-3.8,0-6.7-1.5-8.8-4.4c-2-2.9-3-6.9-3-12v-9.2c0-5.1,1-9.1,3-12c2-2.9,4.9-4.3,8.7-4.3c3.8,0,6.7,1.4,8.7,4.3c2,2.9,3,6.9,3,12
	V254.4z M162.4,245.2c0-5.7-1.2-10.1-3.5-13.2c-2.3-3.1-5.6-4.7-9.9-4.7c-4.2,0-7.5,1.6-9.9,4.7c-2.3,3.1-3.5,7.5-3.5,13.2v9.3
	c0,5.7,1.2,10.1,3.5,13.2c2.4,3.1,5.6,4.7,9.9,4.7c4.2,0,7.5-1.6,9.8-4.7c2.3-3.1,3.5-7.5,3.5-13.3V245.2z M130.7,271.8V263h-1.6
	v7.2h-22.3l-0.1-0.2l12.6-14.7c2.9-3.4,5.1-6.3,6.7-8.8c1.6-2.5,2.4-5,2.4-7.4c0-3.7-1.1-6.6-3.3-8.7c-2.2-2.1-5.1-3.1-8.8-3.1
	c-3.9,0-7,1.2-9.4,3.7c-2.3,2.5-3.5,5.5-3.4,9.1l0.1,0.2h1.4c0-3.4,1-6.1,3-8.2c2-2.1,4.8-3.2,8.3-3.2c3.4,0,6,0.9,7.7,2.7
	c1.8,1.8,2.7,4.3,2.7,7.5c0,1.9-0.6,4.1-1.9,6.4c-1.3,2.3-3.2,5-6,8.2l-14.4,16.6v1.6H130.7z"/>
<path fill="#FFFFFF" d="M253.1,183.7c-1.2-1.3-2.8-2.4-4.8-3.2c-2-0.8-4.1-1.2-6.5-1.2c-3.3,0-6,0.8-8,2.4c-2,1.6-3,3.5-3,5.9
	c0,2.5,0.9,4.4,2.6,5.7c1.8,1.3,4.6,2.4,8.4,3.2c3.7,0.8,6.3,1.9,7.7,3.3c1.5,1.4,2.2,3,2.2,4.7c0,1.8-0.9,3.5-2.7,4.9
	c-1.8,1.4-4.2,2.1-7.2,2.1c-2,0-3.8-0.3-5.5-0.8c-1.7-0.6-3.2-1.5-4.4-2.7V203h-1.6v5.8c1.3,1.3,3,2.4,5,3.2c2,0.8,4.2,1.1,6.6,1.1
	c3.5,0,6.2-0.8,8.3-2.4c2.1-1.6,3.1-3.7,3.1-6.2c0-2.6-0.9-4.6-2.8-6.1c-1.9-1.5-4.6-2.6-8.3-3.5c-3.9-0.9-6.6-2-7.9-3.2
	c-1.3-1.2-2-2.7-2-4.4c0-1.7,0.8-3.3,2.4-4.6s3.9-2,6.9-2c2.1,0,4,0.3,5.6,0.9c1.6,0.6,2.9,1.5,4,2.7v5.3h1.6V183.7z M198.4,196.2
	c0-4.5,0.9-8.2,2.7-11c1.8-2.8,4.4-4.2,7.9-4.2c3.1,0,5.5,0.8,7.3,2.4c1.7,1.6,3,3.5,3.8,5.9v15.3c-0.8,2.1-2.2,3.9-4.1,5.2
	c-1.9,1.3-4.2,1.9-7.1,1.9c-3.5,0-6.1-1.3-7.8-4c-1.8-2.7-2.7-6.2-2.7-10.7V196.2z M220.1,212.5h6.5v-1.6h-4.9v-45.4H220h-4.9v1.6
	h4.9v18.8c-1.1-2-2.6-3.7-4.4-4.8c-1.8-1.2-4.1-1.8-6.6-1.8c-3.9,0-6.9,1.5-9,4.6c-2.2,3-3.3,7.1-3.3,12.3v0.6c0,5,1.1,9,3.2,11.9
	c2.2,2.9,5.2,4.4,9,4.4c2.6,0,4.8-0.5,6.7-1.6c1.9-1.1,3.4-2.5,4.4-4.3L220.1,212.5z M180,179.9h-4.9v1.6h4.9v29.4h-4.9v1.6h11.5
	v-1.6h-4.9v-19.7c0.5-3.1,1.7-5.6,3.5-7.4c1.8-1.9,4.2-2.8,7.1-2.8l2.1,0.2l0.2-1.4c-0.3-0.1-0.6-0.2-1-0.2
	c-0.4-0.1-0.8-0.1-1.3-0.1c-2.6,0-4.8,0.6-6.6,1.9c-1.8,1.3-3.1,3.1-4,5.4v-1.1l-0.3-5.7H180z M145.3,209.5
	c-1.5-1.4-2.2-3.1-2.2-5.1c0-2.5,1.2-4.5,3.6-6.1c2.4-1.6,5.6-2.3,9.6-2.3h8v7.7c-1.1,2.5-2.9,4.4-5.1,5.8c-2.3,1.4-4.9,2.1-8,2.1
	C148.7,211.6,146.7,210.9,145.3,209.5 M170.3,212.5v-1.6h-3.9c-0.2-0.8-0.3-1.6-0.3-2.4c-0.1-0.8-0.1-1.7-0.1-2.5v-16.3
	c0-3.3-1.1-5.9-3.2-7.7c-2.1-1.8-4.9-2.7-8.4-2.7c-2.3,0-4.5,0.4-6.6,1.1c-2.1,0.7-3.9,1.7-5.5,2.8l0,6.2h1.6l0-5.2
	c1.3-1,2.8-1.8,4.6-2.4c1.8-0.6,3.7-0.9,5.8-0.9c3.2,0,5.6,0.8,7.3,2.3c1.7,1.5,2.6,3.6,2.6,6.3v4.8h-8.1c-4.5,0-8.1,0.9-10.8,2.8
	c-2.7,1.8-4,4.2-4,7.2c0,2.7,0.9,4.8,2.6,6.4c1.7,1.6,4.1,2.5,7.1,2.5c3,0,5.7-0.6,7.9-1.9c2.2-1.2,4-2.8,5.2-4.8v0.5
	c0,0.8,0,1.6,0.1,2.3c0.1,0.7,0.3,1.8,0.5,3.2H170.3z M101.2,179.9h-9.7v1.6h3.4l9,31h1.6l7.9-24.5l1.6-5.5h0.2l1.4,5.5l8,24.5h1.6
	l9-31h3.4v-1.6H129v1.6h4.4l-6.2,21.5l-1.7,6.7l-0.2,0l-2.1-6.7l-7.3-23.2h-1.7l-7.3,23.2l-2.1,6.7l-0.2,0l-1.7-6.7l-6.2-21.5h4.5
	V179.9z M68.9,209.5c-1.5-1.4-2.2-3.1-2.2-5.1c0-2.5,1.2-4.5,3.6-6.1c2.4-1.6,5.6-2.3,9.6-2.3h8v7.7c-1.1,2.5-2.9,4.4-5.1,5.8
	c-2.3,1.4-4.9,2.1-8,2.1C72.4,211.6,70.4,210.9,68.9,209.5 M94,212.5v-1.6H90c-0.2-0.8-0.3-1.6-0.3-2.4c-0.1-0.8-0.1-1.7-0.1-2.5
	v-16.3c0-3.3-1.1-5.9-3.2-7.7c-2.1-1.8-4.9-2.7-8.4-2.7c-2.3,0-4.5,0.4-6.6,1.1c-2.1,0.7-3.9,1.7-5.5,2.8l0,6.2h1.6l0-5.2
	c1.3-1,2.8-1.8,4.6-2.4c1.8-0.6,3.7-0.9,5.8-0.9c3.2,0,5.6,0.8,7.3,2.3c1.7,1.5,2.6,3.6,2.6,6.3v4.8h-8.1c-4.5,0-8.1,0.9-10.8,2.8
	c-2.7,1.8-4,4.2-4,7.2c0,2.7,0.9,4.8,2.6,6.4c1.7,1.6,4.1,2.5,7.1,2.5c3,0,5.7-0.6,7.9-1.9c2.2-1.2,4-2.8,5.2-4.8v0.5
	c0,0.8,0,1.6,0.1,2.3c0.1,0.7,0.3,1.8,0.5,3.2H94z"/>
<rect x="252.6" y="115.9" transform="matrix(0.7071 0.7071 -0.7071 0.7071 253.4756 -104.4813)" fill="#BFA624" width="0.5" height="275.7"/>
</svg>
